#!OML:ASF E:\motion texture\Top Level 1\Subject 1\Session 1\male.ASF
:FULLY-SPECIFIED
:DEGREES
686
root -40.4678 17.9927 2.61553 642.079 -96.4952 -637.5
lowerback -4.31307 -1.17842 4.82285
upperback -1.39973 -1.95885 4.49105
thorax 0.977759 -1.03031 1.82063
lowerneck -13.2172 -6.86012 -10.4285
upperneck 29.5554 -10.3411 6.78633
head 12.9819 -5.23394 2.72315
rclavicle 1.63827e-014 3.18055e-015
rhumerus -28.4121 9.97291 -89.2389
rradius 70.9183
rwrist -49.0887
rhand 9.85453 -37.6963
rfingers 7.12502
rthumb 34.9884 -64.2551
lclavicle 1.63827e-014 3.18055e-015
lhumerus -71.7913 55.4635 27.5045
lradius 12.9337
lwrist -71.4173
lhand -8.78801 27.3098
lfingers 7.12502
lthumb 17.1505 56.5729
rfemur -15.6488 4.20428 29.0548
rtibia 17.5524
rfoot -3.22285 -7.70678
rtoes 22.0683
lfemur -14.1377 2.26546 -9.58039
ltibia 54.7353
lfoot 5.35683 -2.08831
ltoes -12.892
687
root -40.6023 18.0028 2.60181 644.313 -96.6878 -639.768
lowerback -4.29206 -1.0957 5.00803
upperback -1.30672 -1.86247 4.50861
thorax 1.05701 -0.980766 1.73969
lowerneck -13.1993 -6.79886 -10.4186
upperneck 29.9412 -10.2887 6.68481
head 13.126 -5.233 2.69278
rclavicle 7.30534e-015 -5.00937e-014
rhumerus -28.7483 9.83318 -89.1353
rradius 70.4566
rwrist -48.8929
rhand 10.2707 -37.5516
rfingers 7.12502
rthumb 35.383 -64.0173
lclavicle 7.30534e-015 -5.00937e-014
lhumerus -71.8736 54.8002 27.681
lradius 13.0442
lwrist -70.4018
lhand -8.53525 27.1628
lfingers 7.12502
lthumb 17.3938 56.4045
rfemur -14.9818 4.3387 29.3533
rtibia 17.3444
rfoot -3.48629 -7.46488
rtoes 22.1875
lfemur -15.0548 2.68622 -9.35293
ltibia 55.5323
lfoot 5.41683 -1.98713
ltoes -12.579
688
root -40.7354 18.0124 2.58876 646.479 -96.8785 -641.963
lowerback -4.26849 -1.0101 5.18285
upperback -1.21287 -1.76146 4.52025
thorax 1.13643 -0.92858 1.65883
lowerneck -13.183 -6.73518 -10.405
upperneck 30.3103 -10.2303 6.58306
head 13.2639 -5.22894 2.66242
rclavicle 1.39305e-014 4.77083e-015
rhumerus -29.0694 9.67168 -89.0233
rradius 69.9381
rwrist -48.6464
rhand 10.6837 -37.3997
rfingers 7.12502
rthumb 35.7745 -63.7713
lclavicle 1.39305e-014 4.77083e-015
lhumerus -71.575 54.0635 28.3341
lradius 13.1846
lwrist -69.1426
lhand -8.28508 26.9999
lfingers 7.12502
lthumb 17.6345 56.2202
rfemur -14.3208 4.46726 29.6307
rtibia 17.1314
rfoot -3.75577 -7.22435
rtoes 22.2672
lfemur -15.9675 3.09979 -9.14862
ltibia 56.2354
lfoot 5.39938 -1.86645
ltoes -12.3095
689
root -40.8673 18.0213 2.57644 648.562 -97.0694 -644.072
lowerback -4.24235 -0.92248 5.35095
upperback -1.11939 -1.65706 4.52648
thorax 1.2147 -0.874434 1.57648
lowerneck -13.168 -6.66816 -10.3881
upperneck 30.6635 -10.1649 6.48197
head 13.3956 -5.22123 2.63272
rclavicle 1.09052e-014 -2.14687e-014
rhumerus -29.376 9.4881 -88.9031
rradius 69.3606
rwrist -48.3471
rhand 11.0876 -37.2463
rfingers 7.12502
rthumb 36.1572 -63.5241
lclavicle 1.09052e-014 -2.14687e-014
lhumerus -70.9704 53.2604 29.3825
lradius 13.3555
lwrist -67.6734
lhand -8.03842 26.8223
lfingers 7.12502
lthumb 17.8719 56.0211
rfemur -13.6672 4.58909 29.8899
rtibia 16.9139
rfoot -4.02586 -6.98446
rtoes 22.3117
lfemur -16.8723 3.50317 -8.96396
ltibia 56.8394
lfoot 5.30892 -1.72603
ltoes -12.0763
690
root -40.998 18.0297 2.56483 650.562 -97.26 -646.092
lowerback -4.2151 -0.833065 5.51158
upperback -1.02597 -1.5497 4.52806
thorax 1.29301 -0.818537 1.49381
lowerneck -13.156 -6.60003 -10.3666
upperneck 31.0001 -10.0949 6.37907
head 13.5212 -5.21092 2.602
rclavicle -1.82882e-014 1.35174e-014
rhumerus -29.6679 9.27925 -88.7735
rradius 68.7237
rwrist -47.9911
rhand 11.478 -37.087
rfingers 7.12502
rthumb 36.5268 -63.2723
lclavicle -1.82882e-014 1.35174e-014
lhumerus -70.1409 52.4049 30.7318
lradius 13.555
lwrist -66.0392
lhand -7.80391 26.6304
lfingers 7.12502
lthumb 18.0975 55.8084
rfemur -13.0242 4.70462 30.1312
rtibia 16.6965
rfoot -4.29554 -6.7522
rtoes 22.3248
lfemur -17.7672 3.89312 -8.7976
ltibia 57.3397
lfoot 5.14941 -1.56354
ltoes -11.8743
691
root -41.1275 18.0373 2.5539 652.478 -97.4503 -648.023
lowerback -4.18582 -0.741942 5.66542
upperback -0.933704 -1.43935 4.52505
thorax 1.36969 -0.760929 1.4105
lowerneck -13.1449 -6.53024 -10.3417
upperneck 31.3194 -10.0199 6.27655
head 13.6399 -5.19779 2.57147
rclavicle -1.13742e-014 -8.74653e-015
rhumerus -29.9455 9.04237 -88.6337
rradius 68.0254
rwrist -47.5732
rhand 11.8533 -36.9266
rfingers 7.12502
rthumb 36.8819 -63.0215
lclavicle -1.13742e-014 -8.74653e-015
lhumerus -69.1565 51.5043 32.3
lradius 13.7825
lwrist -64.2805
lhand -7.57627 26.4283
lfingers 7.12502
lthumb 18.3165 55.5859
rfemur -12.3931 4.81584 30.3558
rtibia 16.4823
rfoot -4.56155 -6.53314
rtoes 22.3028
lfemur -18.6486 4.26866 -8.64742
ltibia 57.733
lfoot 4.92177 -1.37877
ltoes -11.7093
692
root -41.2558 18.0442 2.54369 654.304 -97.6411 -649.859
lowerback -4.15425 -0.649815 5.81464
upperback -0.842908 -1.327 4.51789
thorax 1.44424 -0.702141 1.32577
lowerneck -13.1354 -6.45745 -10.3145
upperneck 31.6216 -9.93842 6.17673
head 13.7519 -5.18091 2.5425
rclavicle 9.24349e-015 1.27222e-014
rhumerus -30.2071 8.77868 -88.4829
rradius 67.2631
rwrist -47.0906
rhand 12.2101 -36.7705
rfingers 7.12502
rthumb 37.2194 -62.7779
lclavicle 9.24349e-015 1.27222e-014
lhumerus -68.0785 50.5701 34.0115
lradius 14.0363
lwrist -62.436
lhand -7.35831 26.2197
lfingers 7.12502
lthumb 18.5262 55.3575
rfemur -11.7764 4.92241 30.5657
rtibia 16.2747
rfoot -4.824 -6.32405
rtoes 22.2605
lfemur -19.514 4.6282 -8.51058
ltibia 58.0162
lfoot 4.63277 -1.1719
ltoes -11.5709
693
root -41.3831 18.0503 2.53409 656.049 -97.8315 -651.609
lowerback -4.12262 -0.556122 5.95766
upperback -0.753021 -1.21206 4.50679
thorax 1.51854 -0.641845 1.24068
lowerneck -13.1283 -6.38375 -10.2834
upperneck 31.906 -9.85302 6.07799
head 13.857 -5.16134 2.51371
rclavicle -3.85145e-015 6.75868e-014
rhumerus -30.4526 8.48457 -88.3196
rradius 66.436
rwrist -46.5403
rhand 12.5432 -36.6125
rfingers 7.12502
rthumb 37.5343 -62.5369
lclavicle -3.85145e-015 6.75868e-014
lhumerus -66.9651 49.619 35.7904
lradius 14.3137
lwrist -60.5544
lhand -7.15074 26.0004
lfingers 7.12502
lthumb 18.7258 55.1191
rfemur -11.1758 5.02547 30.7607
rtibia 16.0775
rfoot -5.08743 -6.12278
rtoes 22.198
lfemur -20.36 4.97061 -8.38589
ltibia 58.1869
lfoot 4.28584 -0.942015
ltoes -11.4569
694
root -41.5093 18.0556 2.52531 657.713 -98.0209 -653.273
lowerback -4.08799 -0.462104 6.09573
upperback -0.666328 -1.09582 4.49232
thorax 1.58855 -0.580822 1.15511
lowerneck -13.1182 -6.3094 -10.2516
upperneck 32.1719 -9.76443 5.98142
head 13.9539 -5.13983 2.48614
rclavicle 3.18055e-015 2.38542e-014
rhumerus -30.6856 8.16055 -88.1438
rradius 65.544
rwrist -45.9224
rhand 12.8433 -36.4503
rfingers 7.12502
rthumb 37.8178 -62.2988
lclavicle 3.18055e-015 2.38542e-014
lhumerus -65.8315 48.6467 37.6211
lradius 14.6159
lwrist -58.6376
lhand -6.95452 25.7783
lfingers 7.12502
lthumb 18.9146 54.8786
rfemur -10.5924 5.12353 30.9404
rtibia 15.8931
rfoot -5.35398 -5.92786
rtoes 22.118
lfemur -21.1847 5.29352 -8.27323
ltibia 58.2451
lfoot 3.88613 -0.687288
ltoes -11.3697
695
root -41.6345 18.0601 2.51721 659.305 -98.2086 -654.858
lowerback -4.05263 -0.367561 6.22757
upperback -0.582666 -0.978152 4.4744
thorax 1.65572 -0.518991 1.06965
lowerneck -13.1089 -6.234 -10.2167
upperneck 32.4214 -9.67189 5.88554
head 14.0439 -5.11578 2.45881
rclavicle 4.55962e-015 3.10104e-014
rhumerus -30.9053 7.80579 -87.9545
rradius 64.5868
rwrist -45.2351
rhand 13.1047 -36.286
rfingers 7.12502
rthumb 38.0647 -62.0675
lclavicle 4.55962e-015 3.10104e-014
lhumerus -64.7162 47.6692 39.4481
lradius 14.9401
lwrist -56.7243
lhand -6.77224 25.5508
lfingers 7.12502
lthumb 19.0899 54.634
rfemur -10.0284 5.21829 31.105
rtibia 15.7235
rfoot -5.62452 -5.74281
rtoes 22.0108
lfemur -21.9871 5.59804 -8.17084
ltibia 58.1905
lfoot 3.44 -0.407096
ltoes -11.3226
696
root -41.7589 18.0637 2.50977 660.824 -98.3945 -656.365
lowerback -4.01563 -0.272772 6.35348
upperback -0.501623 -0.859364 4.45334
thorax 1.71996 -0.456523 0.984433
lowerneck -13.1024 -6.1579 -10.1792
upperneck 32.655 -9.57618 5.79209
head 14.1278 -5.08929 2.43234
rclavicle 2.64632e-015 6.83819e-014
rhumerus -31.1105 7.41843 -87.7506
rradius 63.5639
rwrist -44.4786
rhand 13.3215 -36.119
rfingers 7.12502
rthumb 38.2694 -61.8444
lclavicle 2.64632e-015 6.83819e-014
lhumerus -63.638 46.6979 41.2417
lradius 15.2842
lwrist -54.8379
lhand -6.60337 25.3197
lfingers 7.12502
lthumb 19.2523 54.3867
rfemur -9.4825 5.31015 31.2554
rtibia 15.569
rfoot -5.89602 -5.56791
rtoes 21.8793
lfemur -22.7634 5.88343 -8.07654
ltibia 58.022
lfoot 2.95424 -0.100847
ltoes -11.3111
697
root -41.8824 18.0665 2.50302 662.264 -98.577 -657.789
lowerback -3.97627 -0.178934 6.47302
upperback -0.424222 -0.740885 4.42951
thorax 1.77975 -0.3942 0.89999
lowerneck -13.0984 -6.08077 -10.1383
upperneck 32.8744 -9.47661 5.69896
head 14.206 -5.06028 2.40589
rclavicle -5.96354e-016 1.74931e-014
rhumerus -31.3044 6.99859 -87.5312
rradius 62.4778
rwrist -43.6529
rhand 13.4842 -35.9508
rfingers 7.12502
rthumb 38.423 -61.6337
lclavicle -5.96354e-016 1.74931e-014
lhumerus -62.6131 45.7425 42.9762
lradius 15.6454
lwrist -52.9978
lhand -6.44806 25.0886
lfingers 7.12502
lthumb 19.4016 54.1407
rfemur -8.95479 5.39558 31.3911
rtibia 15.4308
rfoot -6.1699 -5.40077
rtoes 21.7318
lfemur -23.5119 6.14839 -7.98991
ltibia 57.7392
lfoot 2.4392 0.231382
ltoes -11.3202
698
root -42.0053 18.0684 2.4969 663.637 -98.7544 -659.14
lowerback -3.93739 -0.0859818 6.58443
upperback -0.349034 -0.622871 4.40248
thorax 1.83815 -0.332023 0.816804
lowerneck -13.0974 -6.00347 -10.0954
upperneck 33.0782 -9.37507 5.60964
head 14.2783 -5.02916 2.38076
rclavicle -2.78299e-015 3.89618e-014
rhumerus -31.4837 6.54581 -87.2953
rradius 61.3265
rwrist -42.7587
rhand 13.5829 -35.7782
rfingers 7.12502
rthumb 38.5161 -61.4352
lclavicle -2.78299e-015 3.89618e-014
lhumerus -61.6431 44.8104 44.6422
lradius 16.0222
lwrist -51.2152
lhand -6.30642 24.8595
lfingers 7.12502
lthumb 19.5378 53.8978
rfemur -8.4447 5.47541 31.5115
rtibia 15.3103
rfoot -6.44721 -5.24272
rtoes 21.562
lfemur -24.2294 6.39148 -7.91072
ltibia 57.3406
lfoot 1.90002 0.58881
ltoes -11.369
699
root -42.1602 18.1275 2.4625 668.534 -99.4295 -664.248
lowerback -3.91922 0.168425 6.83779
upperback -0.104802 -0.315448 4.41299
thorax 2.09088 -0.168791 0.704883
lowerneck -12.8666 -5.82274 -9.93599
upperneck 33.8372 -9.11891 5.0452
head 14.5008 -5.00817 2.17442
rclavicle -6.11263e-015 -4.77083e-015
rhumerus -32.3835 7.54258 -87.7179
rradius 64.2072
rwrist -40.851
rhand 13.5488 -34.3733
rfingers 7.12502
rthumb 38.484 -60.0392
lclavicle -6.11263e-015 -4.77083e-015
lhumerus -60.4829 40.4857 49.1882
lradius 17.2964
lwrist -43.4191
lhand -4.97766 23.0859
lfingers 7.12502
lthumb 20.8149 51.9894
rfemur -6.79606 5.79849 31.8072
rtibia 13.8516
rfoot -6.34992 -4.33449
rtoes 22.0072
lfemur -26.4806 7.99224 -7.84859
ltibia 62.4294
lfoot -0.459921 -0.0433983
ltoes -12.323
700
root -42.2776 18.1269 2.4601 670.113 -99.4863 -665.792
lowerback -3.85786 0.222413 6.85755
upperback -0.0815547 -0.233229 4.3085
thorax 2.08276 -0.125163 0.590455
lowerneck -12.7773 -5.67508 -9.87612
upperneck 34.0521 -8.9367 4.96989
head 14.5519 -4.94441 2.16795
rclavicle -6.41081e-015 -2.38542e-015
rhumerus -32.4475 7.02954 -87.5283
rradius 62.4684
rwrist -38.6904
rhand 13.4826 -34.7272
rfingers 7.12502
rthumb 38.4215 -60.4105
lclavicle -6.41081e-015 -2.38542e-015
lhumerus -60.1977 40.0125 49.8639
lradius 17.5912
lwrist -42.0415
lhand -4.82964 22.9549
lfingers 7.12502
lthumb 20.9571 51.8428
rfemur -6.38777 5.85283 31.7166
rtibia 13.8061
rfoot -6.64868 -4.21959
rtoes 21.9935
lfemur -27.2487 7.99347 -7.98006
ltibia 61.664
lfoot -1.30759 0.26245
ltoes -12.359
